<?xml version="1.0" encoding="utf-8"?>
<!-- Generator: Adobe Illustrator 25.4.1, SVG Export Plug-In . SVG Version: 6.00 Build 0)  -->
<svg version="1.1" id="Layer_1" xmlns="http://www.w3.org/2000/svg" xmlns:xlink="http://www.w3.org/1999/xlink" x="0px" y="0px"
	 viewBox="0 0 3326.9 940" enable-background="new 0 0 3326.9 940" xml:space="preserve">
<g>
	<path fill="#FFFFFF" d="M1714.4,463.7c-24.2,0-41.6,7.9-59.3,16v182.8c16.9,1.6,26.6,1.6,42.7,1.6c58,0,66-26.6,66-63.7v-87.3
		C1763.8,485.7,1754.7,463.7,1714.4,463.7L1714.4,463.7z M1329,453.7c-40.3,0-49.5,22.1-49.5,49.5v15.4h98.9v-15.4
		C1378.4,475.8,1369.2,453.7,1329,453.7z M582.4,643.9c0,21.7,10.2,32.9,32.8,32.9c24.2,0,38.5-7.9,56.2-16v-43.4h-52.9
		C593.4,617.5,582.4,622.2,582.4,643.9L582.4,643.9z M2089.3,463.7c-40.3,0-54.3,22-54.3,49.4v100c0,27.5,14,49.5,54.3,49.5
		c40.2,0,54.3-22.1,54.3-49.5v-100C2143.6,485.7,2129.5,463.7,2089.3,463.7z M384.7,756.1H266.1v-287h-59.2v-98.9h59.3v-59.4
		c0-80.7,33.4-128.6,128.5-128.6h79.1v98.9h-49.5c-37,0-39.4,13.8-39.4,39.6l-0.1,49.5h89.6l-10.5,98.9h-79.1L384.7,756.1
		L384.7,756.1z M789.9,756.8h-98.8l-4.3-25c-45.1,25-85.4,29-111.9,29c-72.5,0-111-48.4-111-115.4c0-79,45-107.2,125.5-107.2h82
		v-17.1c0-40.3-4.6-52.2-66.6-52.2H503.3l9.9-98.9H624c136,0,165.9,43,165.9,151.8L789.9,756.8L789.9,756.8z M1125.9,476.4
		c-61.5-10.5-79.1-12.9-108.7-12.9c-53.1,0-69.2,11.7-69.2,56.9v85.4c0,45.1,16.1,56.9,69.2,56.9c29.6,0,47.2-2.4,108.7-12.9v96.5
		c-53.9,12.1-88.9,15.2-118.6,15.2c-127.3,0-177.9-66.9-177.9-163.6v-69.3c0-96.8,50.6-163.8,177.9-163.8
		c29.7,0,64.7,3.2,118.6,15.3V476.4L1125.9,476.4z M1496.9,597.7h-217.4v8c0,45.1,16.1,56.9,69.2,56.9c47.8,0,76.9-2.4,138.3-12.9
		v96.5c-59.2,12.1-90,15.2-148.1,15.2c-127.3,0-177.9-66.9-177.9-163.6v-79.2c0-84.6,37.6-153.9,168-153.9s168,68.5,168,153.9V597.7
		z M1882.3,599.6c0,93.5-26.7,161.6-188.5,161.6c-58.4,0-92.7-5.1-157.2-15.1V211.9l118.5-19.8V379c25.6-9.5,58.8-14.4,88.9-14.4
		c118.5,0,138.3,53.1,138.3,138.5L1882.3,599.6L1882.3,599.6z M2262.2,601.6c0,80.6-33.3,158.8-172.6,158.8
		c-139.3,0-173.2-78.2-173.2-158.8v-77.8c0-80.7,33.9-158.9,173.2-158.9c139.3,0,172.6,78.2,172.6,158.9V601.6L2262.2,601.6z
		 M2641.9,601.6c0,80.6-33.3,158.8-172.6,158.8c-139.3,0-173.2-78.2-173.2-158.8v-77.8c0-80.7,33.9-158.9,173.2-158.9
		c139.2,0,172.6,78.2,172.6,158.9V601.6L2641.9,601.6z M3031.5,756.1h-128.5l-108.7-181.4v181.4h-118.6V211.9l118.6-19.8v350.3
		l108.7-172.2h128.5l-118.6,187.9L3031.5,756.1z M2468.9,463.7c-40.3,0-54.2,22-54.2,49.4v100c0,27.5,14,49.5,54.2,49.5
		c40.2,0,54.4-22.1,54.4-49.5v-100C2523.4,485.7,2509.1,463.7,2468.9,463.7L2468.9,463.7z M3099.2,688.4c20,0,35.9,16.3,35.9,36.6
		c0,20.6-15.9,36.7-36,36.7c-20,0-36.2-16.1-36.2-36.7c0-20.3,16.2-36.6,36.2-36.6H3099.2z M3099.1,694.1
		c-16.1,0-29.2,13.8-29.2,30.9c0,17.4,13.2,31,29.4,31c16.2,0.2,29.2-13.7,29.2-30.9s-13-31.1-29.2-31.1H3099.1z M3092.2,746.3h-6.5
		v-40.8c3.4-0.5,6.7-0.9,11.5-0.9c6.2,0,10.2,1.3,12.7,3.1c2.4,1.8,3.7,4.6,3.7,8.4c0,5.4-3.6,8.6-7.9,9.9v0.3
		c3.6,0.7,6,3.9,6.8,9.9c0.9,6.4,1.9,8.8,2.6,10.1h-6.8c-1-1.3-2-5.1-2.8-10.4c-0.9-5.2-3.6-7.1-8.8-7.1h-4.5L3092.2,746.3
		L3092.2,746.3z M3092.2,723.7h4.7c5.3,0,9.9-2,9.9-7c0-3.6-2.6-7.1-9.9-7.1c-2.1,0-3.6,0.2-4.7,0.3V723.7L3092.2,723.7z"/>
</g>
</svg>
