<?xml version="1.0" encoding="utf-8"?>
<!-- Generator: Adobe Illustrator 25.4.1, SVG Export Plug-In . SVG Version: 6.00 Build 0)  -->
<svg version="1.1" id="Livello_1" xmlns="http://www.w3.org/2000/svg" xmlns:xlink="http://www.w3.org/1999/xlink" x="0px" y="0px"
	 viewBox="0 0 132 132" enable-background="new 0 0 132 132" xml:space="preserve">
<g>
	
		<radialGradient id="SVGID_1_" cx="-1629.1288" cy="-405.5721" r="139.5149" fx="-1758.1156" fy="-418.6969" gradientTransform="matrix(6.123234e-17 -1 -1 -6.123234e-17 -408.2418 -1496.7032)" gradientUnits="userSpaceOnUse">
		<stop  offset="0" style="stop-color:#FFDD55"/>
		<stop  offset="0.1" style="stop-color:#FFDD55"/>
		<stop  offset="0.5837" style="stop-color:#FF543E"/>
		<stop  offset="1" style="stop-color:#C837AB"/>
	</radialGradient>
	<path fill="url(#SVGID_1_)" d="M132.2,66L132.2,66c0,36.5-29.5,66-66,66h0c-36.5,0-66-29.5-66-66v0c0-36.5,29.5-66,66-66h0
		C102.7,0,132.2,29.5,132.2,66z"/>
	
		<radialGradient id="SVGID_00000119806927115666879550000012528055665873581954_" cx="146.6923" cy="155.044" r="160.9021" gradientTransform="matrix(1 0 0 -1 0 134)" gradientUnits="userSpaceOnUse">
		<stop  offset="0" style="stop-color:#3771C8"/>
		<stop  offset="0.128" style="stop-color:#3771C8"/>
		<stop  offset="0.2447" style="stop-color:#415AD3;stop-opacity:0.8662"/>
		<stop  offset="0.4722" style="stop-color:#5133E6;stop-opacity:0.6053"/>
		<stop  offset="0.6815" style="stop-color:#5C17F4;stop-opacity:0.3652"/>
		<stop  offset="0.8642" style="stop-color:#6306FC;stop-opacity:0.1557"/>
		<stop  offset="1" style="stop-color:#6600FF;stop-opacity:0"/>
	</radialGradient>
	<path fill="url(#SVGID_00000119806927115666879550000012528055665873581954_)" d="M66.2,0L66.2,0c36.5,0,66,29.5,66,66v0
		c0,36.5-29.5,66-66,66h0c-36.5,0-66-29.5-66-66v0C0.2,29.5,29.7,0,66.2,0z"/>
	<path fill="#FFFFFF" d="M66.2,29.7c-9.8,0-11.1,0.1-15,0.2c-3.9,0.2-6.5,0.8-8.8,1.7C40,32.5,38,33.8,36,35.8c-2,2-3.3,4-4.2,6.4
		c-0.9,2.3-1.5,4.9-1.7,8.8c-0.2,3.9-0.2,5.1-0.2,15s0.1,11.1,0.2,15c0.2,3.9,0.8,6.5,1.7,8.8c0.9,2.4,2.2,4.4,4.2,6.4
		c2,2,4,3.3,6.4,4.2c2.3,0.9,4.9,1.5,8.8,1.7c3.9,0.2,5.1,0.2,15,0.2s11.1-0.1,15-0.2c3.9-0.2,6.5-0.8,8.8-1.7
		c2.4-0.9,4.4-2.2,6.4-4.2c2-2,3.3-4,4.2-6.4c0.9-2.3,1.5-4.9,1.7-8.8c0.2-3.9,0.2-5.1,0.2-15s-0.1-11.1-0.2-15
		c-0.2-3.9-0.8-6.5-1.7-8.8c-0.9-2.4-2.2-4.4-4.2-6.4c-2-2-4-3.3-6.4-4.2c-2.3-0.9-5-1.5-8.8-1.7C77.2,29.8,76,29.7,66.2,29.7
		L66.2,29.7z M62.9,36.2c1,0,2,0,3.3,0c9.7,0,10.8,0,14.7,0.2c3.6,0.2,5.4,0.8,6.7,1.3c1.7,0.7,2.9,1.4,4.2,2.7s2,2.5,2.7,4.2
		c0.5,1.3,1.1,3.2,1.3,6.7c0.2,3.9,0.2,5,0.2,14.7s-0.1,10.8-0.2,14.7c-0.2,3.6-0.8,5.4-1.3,6.7c-0.7,1.7-1.4,2.9-2.7,4.2
		c-1.3,1.3-2.5,2-4.2,2.7c-1.3,0.5-3.2,1.1-6.7,1.3c-3.9,0.2-5,0.2-14.7,0.2s-10.8-0.1-14.7-0.2c-3.6-0.2-5.4-0.8-6.7-1.3
		c-1.7-0.7-2.9-1.4-4.2-2.7c-1.3-1.3-2-2.5-2.7-4.2c-0.5-1.3-1.1-3.2-1.3-6.7c-0.2-3.9-0.2-5-0.2-14.7s0-10.8,0.2-14.7
		c0.2-3.6,0.8-5.4,1.3-6.7c0.7-1.7,1.4-2.9,2.7-4.2s2.5-2,4.2-2.7c1.3-0.5,3.2-1.1,6.7-1.3C54.9,36.3,56.1,36.2,62.9,36.2L62.9,36.2
		z M85.6,42.3c-2.4,0-4.4,2-4.4,4.4c0,2.4,2,4.4,4.4,4.4c2.4,0,4.4-2,4.4-4.4C89.9,44.2,88,42.3,85.6,42.3L85.6,42.3z M66.2,47.3
		c-10.3,0-18.7,8.3-18.7,18.7s8.3,18.6,18.7,18.6c10.3,0,18.6-8.3,18.6-18.6S76.5,47.3,66.2,47.3L66.2,47.3z M66.2,53.9
		c6.7,0,12.1,5.4,12.1,12.1s-5.4,12.1-12.1,12.1c-6.7,0-12.1-5.4-12.1-12.1C54.1,59.3,59.5,53.9,66.2,53.9z"/>
</g>
</svg>
