<?xml version="1.0" encoding="utf-8"?>
<!-- Generator: Adobe Illustrator 25.4.1, SVG Export Plug-In . SVG Version: 6.00 Build 0)  -->
<svg version="1.1"
	 id="Livello_1" xmlns:cc="http://creativecommons.org/ns#" xmlns:dc="http://purl.org/dc/elements/1.1/" xmlns:rdf="http://www.w3.org/1999/02/22-rdf-syntax-ns#" xmlns:svg="http://www.w3.org/2000/svg"
	 xmlns="http://www.w3.org/2000/svg" xmlns:xlink="http://www.w3.org/1999/xlink" x="0px" y="0px" viewBox="0 0 921 300"
	 enable-background="new 0 0 921 300" xml:space="preserve">
<path fill="#FFFFFF" d="M83.7,50.1c-17.4,7.3-36.5,27.8-42.5,53.6c-7.6,32.7,24.2,46.5,26.8,42c3.1-5.3-5.7-7.1-7.5-24.1
	c-2.3-21.9,7.8-46.4,20.7-57.1c2.4-2,2.3,0.8,2.3,5.9c0,9.2-0.5,91.6-0.5,108.8c0,23.3-1,30.6-2.7,37.9c-1.7,7.4-4.6,12.3-2.4,14.3
	c2.4,2.1,12.6-3,18.4-11.2c7.1-9.9,9.5-21.7,10-34.5c0.5-15.5,0.5-40.1,0.5-54.1c0-12.9,0.2-50.5-0.2-73.2
	C106.4,52.9,91,47,83.7,50.1 M700.7,159c-0.6,12.1-3.2,21.6-6.6,28.2c-6.4,12.9-19.8,16.9-25.5-1.6c-3.1-10.1-3.2-27-1-41.2
	c2.3-14.4,8.6-25.3,19-24.3C697.1,121.2,701.9,134.5,700.7,159L700.7,159z M526.8,234.1c-0.1,20.1-3.3,37.7-10.1,42.9
	c-9.6,7.3-22.6,1.8-19.9-12.9c2.4-13,13.6-26.2,30-42.5C526.9,221.7,526.9,225.4,526.8,234.1L526.8,234.1z M524.2,158.9
	c-0.6,11-3.4,22.1-6.6,28.4c-6.4,12.9-19.9,17-25.5-1.6c-3.8-12.7-2.9-29.2-1-39.5c2.4-13.4,8.4-25.9,19-25.9
	C520.6,120.2,525.7,131.6,524.2,158.9L524.2,158.9z M423.5,158.8c-0.6,11.7-2.9,21.4-6.6,28.5c-6.6,12.8-19.7,16.9-25.5-1.6
	c-4.2-13.4-2.7-31.6-1-41.4c2.6-14.6,9-25,19-24C419.8,121.2,424.8,134.5,423.5,158.8L423.5,158.8z M885.2,172.4
	c-2.5,0-3.7,2.6-4.6,7c-3.3,15.2-6.8,18.6-11.2,18.6c-5,0-9.5-7.5-10.6-22.6c-0.9-11.9-0.8-33.7,0.4-55.4c0.2-4.5-1-8.9-13-13.2
	c-5.1-1.9-12.6-4.6-16.4,4.4c-10.5,25.4-14.6,45.6-15.6,53.8c-0.1,0.4-0.6,0.5-0.7-0.5c-0.6-6.6-2-18.5-2.2-43.5
	c0-4.9-1.1-9-6.5-12.5c-3.5-2.2-14.1-6.1-18-1.5c-3.3,3.8-7.2,14-11.1,26.2c-3.2,9.9-5.5,16.5-5.5,16.5s0-26.6,0.1-36.7
	c0-3.8-2.6-5.1-3.4-5.3c-3.5-1-10.5-2.7-13.5-2.7c-3.7,0-4.6,2-4.6,5c0,0.4-0.6,35-0.6,59.3c0,1.1,0,2.2,0,3.4
	c-2,11.1-8.6,26.3-15.7,26.3c-7.1,0-10.5-6.3-10.5-35.2c0-16.8,0.5-24.2,0.8-36.4c0.1-7,0.4-12.4,0.4-13.6c-0.1-3.8-6.5-5.6-9.6-6.3
	c-3-0.7-5.7-1-7.7-0.9c-2.9,0.2-5,2.1-5,4.7c0,1.4,0,4.1,0,4.1c-3.8-5.9-9.8-10-13.8-11.2c-10.8-3.2-22.1-0.4-30.6,11.5
	c-6.8,9.5-10.8,20.2-12.4,35.6c-1.2,11.3-0.8,22.7,1.3,32.3c-2.5,10.9-7.2,15.4-12.3,15.4c-7.4,0-12.8-12.1-12.2-33.1
	c0.4-13.8,3.2-23.5,6.2-37.5c1.3-6,0.2-9.1-2.4-12.1c-2.4-2.7-7.5-4.2-14.9-2.4c-5.3,1.2-12.8,2.6-19.6,3.6c0,0,0.4-1.7,0.8-4.6
	c1.8-15.3-14.8-14-20.1-9.2c-3.2,2.9-5.3,6.4-6.1,12.5c-1.3,9.8,6.7,14.4,6.7,14.4c-2.6,12-9.1,27.7-15.7,39.1
	c-3.6,6.1-6.3,10.6-9.8,15.4c0-1.8,0-3.6,0-5.3c-0.1-25.3,0.3-45.1,0.4-52.3c0.1-7,0.4-12.3,0.4-13.5c0-2.7-1.6-3.8-5-5.1
	c-2.9-1.2-6.4-2-10-2.2c-4.6-0.4-7.3,2.1-7.2,4.9c0,0.5,0,3.9,0,3.9c-3.8-5.9-9.8-10-13.8-11.2c-10.8-3.2-22.1-0.4-30.6,11.5
	c-6.8,9.5-11.2,22.7-12.4,35.5c-1.2,11.9-1,21.9,0.6,30.4c-1.7,8.5-6.7,17.4-12.3,17.4c-7.1,0-11.2-6.3-11.2-35.2
	c0-16.8,0.5-24.2,0.8-36.4c0.1-7,0.4-12.4,0.4-13.6c-0.1-3.8-6.5-5.6-9.6-6.3c-3.2-0.7-5.9-1-8-0.8c-2.8,0.2-4.7,2.7-4.7,4.5v4.3
	c-3.8-5.9-9.8-10-13.8-11.2c-10.8-3.2-22-0.3-30.6,11.5c-5.6,7.7-10.1,16.3-12.4,35.3c-0.7,5.5-1,10.6-0.9,15.4
	c-2.2,13.6-12.1,29.3-20.1,29.3c-4.7,0-9.2-9.1-9.2-28.6c0-26,1.6-62.9,1.9-66.5c0,0,10.2-0.2,12.1-0.2c5.1-0.1,9.7,0.1,16.4-0.3
	c3.4-0.2,6.7-12.3,3.2-13.8c-1.6-0.7-12.8-1.3-17.2-1.4c-3.7-0.1-14.1-0.9-14.1-0.9s0.9-24.5,1.2-27.1c0.2-2.2-2.6-3.3-4.2-3.9
	c-3.9-1.6-7.4-2.4-11.5-3.3c-5.7-1.2-8.3,0-8.8,4.8c-0.8,7.3-1.2,28.7-1.2,28.7c-4.2,0-18.5-0.8-22.7-0.8c-3.9,0-8.1,16.7-2.7,16.9
	c6.2,0.2,17,0.4,24.1,0.7c0,0-0.3,37.6-0.3,49.2c0,1.2,0,2.4,0,3.6c-3.9,20.5-17.8,31.6-17.8,31.6c3-13.6-3.1-23.8-14.1-32.4
	c-4-3.2-12-9.2-20.9-15.8c0,0,5.2-5.1,9.7-15.3c3.2-7.3,3.4-15.6-4.6-17.4c-13.2-3-24,6.6-27.2,17c-2.5,8-1.2,13.9,3.7,20.1
	c0.4,0.5,0.7,0.9,1.1,1.4c-3,5.7-7.1,13.4-10.5,19.4c-9.6,16.6-16.8,29.7-22.3,29.7c-4.4,0-4.3-13.3-4.3-25.8
	c0-10.8,0.8-26.9,1.4-43.7c0.2-5.5-2.6-8.7-7.2-11.6c-2.8-1.7-8.8-5.2-12.3-5.2c-5.2,0-20.3,0.7-34.5,41.9
	c-1.8,5.2-5.3,14.6-5.3,14.6l0.3-49.5c0-1.2-0.6-2.3-2-3c-2.4-1.3-8.8-4-14.5-4c-2.7,0-4.1,1.3-4.1,3.8l-0.5,77.4
	c0,5.9,0.2,12.7,0.7,15.7c0.6,3,1.5,5.5,2.7,6.9c1.2,1.5,2.5,2.6,4.7,3c2.1,0.4,13.3,1.9,13.9-2.4c0.7-5.2,0.7-10.8,6.7-31.6
	c9.2-32.5,21.3-48.3,26.9-53.9c1-1,2.1-1,2.1,0.6c-0.2,7.1-1.1,24.9-1.7,40c-1.5,40.4,5.8,47.9,16.3,47.9c8,0,19.4-8,31.5-28.2
	c7.6-12.6,14.9-25,20.2-33.9c3.7,3.4,7.8,7.1,11.9,11c9.6,9.1,12.7,17.8,10.7,26c-1.6,6.3-7.6,12.7-18.3,6.5
	c-3.1-1.8-4.5-3.3-7.6-5.3c-1.7-1.1-4.3-1.4-5.8-0.3c-4,3-6.3,6.9-7.6,11.6c-1.3,4.6,3.4,7.1,8.2,9.2c4.1,1.8,13.1,3.5,18.7,3.7
	c22.1,0.7,39.9-10.7,52.2-40.2c2.2,25.5,11.6,39.9,27.9,39.9c10.9,0,21.9-14.1,26.7-28c1.4,5.7,3.4,10.6,6,14.7
	c12.6,19.9,37,15.7,49.3-1.3c3.8-5.2,4.4-7.1,4.4-7.1c1.8,16,14.7,21.6,22,21.6c8.3,0,16.8-3.9,22.8-17.4c0.7,1.5,1.5,2.9,2.3,4.2
	c12.6,19.9,37,15.7,49.3-1.3c0.6-0.8,1.1-1.5,1.5-2.2l0.4,10.5c0,0-7,6.4-11.3,10.4c-18.9,17.3-33.3,30.5-34.3,45.8
	c-1.4,19.5,14.5,26.8,26.5,27.8c12.7,1,23.6-6,30.3-15.9c5.9-8.7,9.8-27.3,9.5-45.7c-0.1-7.4-0.3-16.8-0.4-26.8
	c6.6-7.7,14.1-17.5,21-28.9c7.5-12.4,15.6-29.1,19.7-42.2c0,0,7,0.1,14.5-0.4c2.4-0.2,3.1,0.3,2.6,2.1c-0.5,2.1-9.4,36.4-1.3,59.3
	c5.6,15.7,18.1,20.7,25.5,20.7c8.7,0,17-6.6,21.5-16.3c0.5,1.1,1.1,2.1,1.7,3.1c12.6,19.9,36.9,15.6,49.3-1.3
	c2.8-3.8,4.4-7.1,4.4-7.1c2.7,16.6,15.5,21.7,22.9,21.7c7.7,0,15-3.1,20.9-17.1c0.2,6.2,0.6,11.2,1.3,12.8c0.4,1,2.6,2.2,4.1,2.8
	c7,2.6,14.2,1.4,16.8,0.8c1.8-0.4,3.3-1.8,3.5-5.6c0.5-10,0.2-26.8,3.2-39.2c5.1-20.9,9.8-29.1,12.1-33.1c1.3-2.3,2.7-2.6,2.7-0.2
	c0.1,4.8,0.3,19,2.3,38c1.4,14,3.4,22.3,4.9,24.9c4.2,7.5,9.5,7.8,13.7,7.8c2.7,0,8.4-0.7,7.9-5.5c-0.2-2.3,0.2-16.7,5.2-37.3
	c3.3-13.5,8.7-25.6,10.7-30.1c0.7-1.6,1.1-0.3,1.1-0.1c-0.4,9.3-1.3,39.6,2.4,56.2c5.1,22.5,19.9,25,25.1,25c11,0,20-8.4,23.1-30.4
	C889.5,176.5,888.4,172.4,885.2,172.4"/>
</svg>
